# Blender v2.79 (sub 0) OBJ File: 'casa.blend'
# www.blender.org
mtllib casa.mtl
o Cube.005_Cube.015
v 5.861391 4.963645 6.240445
v 5.861391 7.939903 6.240445
v 5.861391 4.963645 2.240445
v 5.861391 7.939903 2.240445
v 6.861391 4.963645 6.240445
v 6.861391 7.939903 6.240445
v 6.861391 4.963645 2.240445
v 6.861391 7.939903 2.240445
v 5.861391 5.987388 4.340958
v 5.861391 8.963646 4.340958
v 6.861391 5.987388 4.340958
v 6.861391 8.963646 4.340958
vn -1.0000 0.0000 0.0000
vn 0.0000 0.0000 -1.0000
vn 1.0000 0.0000 0.0000
vn 0.0000 0.0000 1.0000
vn 0.0000 -0.8803 -0.4744
vn 0.0000 0.8803 0.4744
vn 0.0000 0.8989 -0.4381
vn 0.0000 -0.8989 0.4381
usemtl None
s off
f 9//1 10//1 4//1 3//1
f 3//2 4//2 8//2 7//2
f 11//3 12//3 6//3 5//3
f 5//4 6//4 2//4 1//4
f 9//5 11//5 5//5 1//5
f 12//6 10//6 2//6 6//6
f 8//7 4//7 10//7 12//7
f 3//8 7//8 11//8 9//8
f 7//3 8//3 12//3 11//3
f 1//1 2//1 10//1 9//1
o Plane.013
v 6.417558 8.158974 3.204381
v 6.417558 0.158973 3.204381
v 6.417558 8.158974 2.204381
v 6.417558 0.158973 2.204381
vn 1.0000 0.0000 0.0000
usemtl None
s off
f 13//9 14//9 16//9 15//9
o Plane.012
v 6.126109 7.766928 6.225576
v 6.126109 -0.233072 6.225576
v 6.126109 7.766928 5.225576
v 6.126109 -0.233072 5.225576
vn 1.0000 0.0000 0.0000
usemtl None
s off
f 17//10 18//10 20//10 19//10
o Plane.011
v 6.487510 6.684068 6.023753
v 6.487510 5.684068 6.023753
v 6.487510 6.684068 2.023753
v 6.487510 5.684068 2.023753
vn 1.0000 0.0000 0.0000
usemtl None
s off
f 21//11 22//11 24//11 23//11
o Plane.010
v 4.986054 -0.005785 2.170809
v 6.386054 -0.005785 2.170809
v 4.986054 7.994215 2.170810
v 6.386054 7.994215 2.170810
vn 0.0000 -0.0000 1.0000
usemtl None
s off
f 25//12 26//12 28//12 27//12
o Plane.009
v 4.860157 7.672028 2.202712
v 4.860157 -0.327973 2.202712
v 4.860157 7.672028 0.202712
v 4.860157 -0.327973 0.202712
vn 1.0000 0.0000 0.0000
usemtl None
s off
f 29//13 30//13 32//13 31//13
o Plane.008
v 4.816621 3.631362 0.212178
v 4.816621 -0.368638 0.212178
v 4.816621 3.631362 -1.787822
v 4.816621 -0.368638 -1.787822
vn 1.0000 0.0000 0.0000
usemtl None
s off
f 33//14 34//14 36//14 35//14
o Plane.006
v 4.789658 3.662506 -1.792614
v 4.789658 -0.337494 -1.792614
v 4.789658 3.662506 -3.792614
v 4.789658 -0.337494 -3.792614
vn 1.0000 0.0000 0.0000
usemtl None
s off
f 37//15 38//15 40//15 39//15
o Plane.005
v 4.829981 7.031564 -3.784302
v 4.829981 -0.968436 -3.784302
v 4.829981 7.031564 -5.784302
v 4.829981 -0.968436 -5.784302
vn 1.0000 0.0000 0.0000
usemtl None
s off
f 41//16 42//16 44//16 43//16
o Cube.004_Cube.014
v 3.075965 11.575098 -1.545180
v 3.075965 13.575098 -1.545180
v 3.075965 11.575098 -3.545180
v 3.075965 13.575098 -3.545180
v 6.075965 11.575098 -1.545180
v 6.075965 13.575098 -1.545180
v 6.075965 11.575098 -3.545180
v 6.075965 13.575098 -3.545180
v 3.075965 12.662689 -2.482795
v 3.075965 14.662689 -2.482795
v 6.075965 12.662689 -2.482795
v 6.075965 14.662689 -2.482795
vn -1.0000 0.0000 0.0000
vn 0.0000 0.0000 -1.0000
vn 1.0000 0.0000 0.0000
vn 0.0000 0.0000 1.0000
vn 0.0000 -0.6530 -0.7574
vn 0.0000 0.6530 0.7574
vn 0.0000 0.6988 -0.7153
vn 0.0000 -0.6988 0.7153
usemtl None
s off
f 53//17 54//17 48//17 47//17
f 47//18 48//18 52//18 51//18
f 55//19 56//19 50//19 49//19
f 49//20 50//20 46//20 45//20
f 53//21 55//21 49//21 45//21
f 56//22 54//22 46//22 50//22
f 52//23 48//23 54//23 56//23
f 47//24 51//24 55//24 53//24
f 51//19 52//19 56//19 55//19
f 45//17 46//17 54//17 53//17
o Cube.003_Cube.013
v 3.487461 10.387153 -1.555809
v 3.487461 12.387153 -1.555809
v 3.487461 10.387153 -3.555809
v 3.487461 12.387153 -3.555809
v 5.487461 10.387153 -1.555809
v 5.487461 12.387153 -1.555809
v 5.487461 10.387153 -3.555809
v 5.487461 12.387153 -3.555809
vn -1.0000 0.0000 0.0000
vn 0.0000 0.0000 -1.0000
vn 1.0000 0.0000 0.0000
vn 0.0000 0.0000 1.0000
vn 0.0000 -1.0000 0.0000
vn 0.0000 1.0000 0.0000
usemtl None
s off
f 57//25 58//25 60//25 59//25
f 59//26 60//26 64//26 63//26
f 63//27 64//27 62//27 61//27
f 61//28 62//28 58//28 57//28
f 59//29 63//29 61//29 57//29
f 64//30 60//30 58//30 62//30
o Cube.002_Cube.012
v 5.182586 12.588843 4.806586
v 5.182586 14.588843 4.806586
v 5.182586 12.588843 1.806586
v 5.182586 14.588843 1.806586
v 7.182586 12.588843 4.806586
v 7.182586 14.588843 4.806586
v 7.182586 12.588843 1.806586
v 7.182586 14.588843 1.806586
v 5.182586 14.016737 3.398899
v 5.182586 16.016737 3.398899
v 7.182586 14.016737 3.398899
v 7.182586 16.016737 3.398899
vn -1.0000 0.0000 0.0000
vn 0.0000 0.0000 -1.0000
vn 1.0000 0.0000 0.0000
vn 0.0000 0.0000 1.0000
vn 0.0000 -0.7021 -0.7121
vn 0.0000 0.7021 0.7121
vn 0.0000 0.7445 -0.6676
vn 0.0000 -0.7445 0.6676
usemtl None
s off
f 73//31 74//31 68//31 67//31
f 67//32 68//32 72//32 71//32
f 75//33 76//33 70//33 69//33
f 69//34 70//34 66//34 65//34
f 73//35 75//35 69//35 65//35
f 76//36 74//36 66//36 70//36
f 72//37 68//37 74//37 76//37
f 67//38 71//38 75//38 73//38
f 71//33 72//33 76//33 75//33
f 65//31 66//31 74//31 73//31
o Cube.001_Cube.011
v 4.887691 9.895124 4.764078
v 4.887691 13.895124 4.764078
v 4.887691 9.895124 1.764078
v 4.887691 13.895124 1.764078
v 6.887691 9.895124 4.764078
v 6.887691 13.895124 4.764078
v 6.887691 9.895124 1.764078
v 6.887691 13.895124 1.764078
v 4.887691 11.880464 4.764078
v 4.887691 11.880464 1.764078
v 6.887691 11.880464 1.764078
v 6.887691 11.880464 4.764078
v 4.887691 10.755438 1.764078
v 6.887691 10.755438 1.764078
v 6.887691 10.755438 4.764078
v 4.887691 10.755438 4.764078
v 4.887691 9.895124 2.433654
v 4.887691 13.895124 2.433654
v 6.887691 9.895124 2.433654
v 6.887691 13.895124 2.433654
v 6.887691 11.880464 2.433654
v 4.887691 11.880464 2.433654
v 4.887691 10.755438 2.433654
v 6.887691 10.755438 2.433654
v 4.887691 9.895124 3.967145
v 6.887691 13.895124 3.967145
v 6.887691 11.880464 3.967145
v 6.887691 10.755438 3.967145
v 4.887691 13.895124 3.967145
v 6.887691 9.895124 3.967145
v 4.887691 11.880464 3.967145
v 4.887691 10.755438 3.967145
v 5.710117 11.880464 2.160034
v 5.710117 10.755438 2.160034
v 5.710117 11.880464 3.693526
v 5.710117 10.755438 3.693526
vn -1.0000 0.0000 0.0000
vn 0.0000 0.0000 -1.0000
vn 1.0000 0.0000 0.0000
vn 0.0000 0.0000 1.0000
vn 0.0000 -1.0000 0.0000
vn 0.0000 1.0000 0.0000
vn 0.2263 0.0000 -0.9741
vn -0.2263 0.0000 0.9741
usemtl None
s off
f 98//39 94//39 80//39 86//39
f 86//40 80//40 84//40 87//40
f 103//41 102//41 82//41 88//41
f 88//42 82//42 78//42 85//42
f 101//43 106//43 81//43 77//43
f 102//44 105//44 78//44 82//44
f 91//42 88//42 85//42 92//42
f 104//41 103//41 88//41 91//41
f 89//40 86//40 87//40 90//40
f 99//39 98//39 86//39 89//39
f 93//39 99//39 89//39 79//39
f 79//40 89//40 90//40 83//40
f 106//41 104//41 91//41 81//41
f 81//42 91//42 92//42 77//42
f 83//41 90//41 100//41 95//41
f 101//39 108//39 99//39 93//39
f 108//39 107//39 98//39 99//39
f 90//41 87//41 97//41 100//41
f 84//44 80//44 94//44 96//44
f 79//43 83//43 95//43 93//43
f 87//41 84//41 96//41 97//41
f 107//39 105//39 94//39 98//39
f 85//39 78//39 105//39 107//39
f 92//39 85//39 107//39 108//39
f 77//39 92//39 108//39 101//39
f 95//41 100//41 104//41 106//41
f 104//44 100//44 110//44 112//44
f 96//44 94//44 105//44 102//44
f 93//43 95//43 106//43 101//43
f 97//41 96//41 102//41 103//41
f 110//41 109//41 111//41 112//41
f 103//45 104//45 112//45 111//45
f 100//46 97//46 109//46 110//46
f 97//43 103//43 111//43 109//43
o Cube_Cube.010
v -3.120174 6.860595 7.211618
v -3.120174 9.810796 7.211618
v -3.120174 6.860595 -6.512759
v -3.120174 9.810796 -6.512759
v 6.682953 6.860595 7.211618
v 6.682953 9.810796 7.211618
v 6.682953 6.860595 -6.512759
v 6.682953 9.810796 -6.512759
v 1.982045 9.792270 -6.512759
v 1.982045 12.742472 -6.512759
v 1.982045 9.792270 7.211618
v 1.982045 12.742472 7.211618
v -3.076424 6.860595 -4.483766
v -3.076424 9.810796 -4.483766
v 6.726703 6.860595 -4.483766
v 6.726703 9.810796 -4.483766
v 2.025795 12.742472 -4.483766
v 2.025795 9.792270 -4.483766
v 4.102433 10.976987 -6.512759
v 4.102433 8.026786 7.211618
v 4.102433 8.026786 -6.512759
v 4.102433 10.976987 7.211618
v 4.146183 10.976987 -4.483766
v 4.146183 8.026786 -4.483766
vn -0.9998 0.0000 0.0216
vn 0.0000 0.0000 -1.0000
vn 1.0000 0.0000 0.0037
vn 0.0000 0.0000 1.0000
vn -0.4118 -0.9113 -0.0015
vn -0.4982 0.8671 -0.0019
vn 0.6399 0.7685 0.0024
vn 0.4982 -0.8671 0.0019
vn 0.4982 -0.8670 -0.0107
vn 0.6398 0.7684 -0.0138
vn -0.4982 0.8670 0.0107
vn -0.4118 -0.9112 0.0089
vn 0.9998 0.0000 -0.0216
vn -1.0000 0.0000 -0.0037
vn -0.6398 -0.7684 0.0138
vn 0.4118 0.9112 -0.0089
vn 0.4118 0.9113 0.0015
vn -0.6399 -0.7685 -0.0024
usemtl None
s off
f 125//47 126//47 116//47 115//47
f 133//48 131//48 120//48 119//48
f 127//49 128//49 118//49 117//49
f 123//50 124//50 114//50 113//50
f 136//51 127//51 117//51 132//51
f 129//52 126//52 114//52 124//52
f 135//53 129//53 124//53 134//53
f 125//54 130//54 123//54 113//54
f 132//50 134//50 124//50 123//50
f 115//48 116//48 122//48 121//48
f 115//55 121//55 130//55 125//55
f 131//56 122//56 129//56 135//56
f 122//57 116//57 126//57 129//57
f 133//58 119//58 127//58 136//58
f 119//59 120//59 128//59 127//59
f 113//60 114//60 126//60 125//60
f 121//61 133//61 136//61 130//61
f 120//62 131//62 135//62 128//62
f 117//50 118//50 134//50 132//50
f 128//63 135//63 134//63 118//63
f 130//64 136//64 132//64 123//64
f 121//48 122//48 131//48 133//48
o Plane.004
v -3.162614 9.073321 6.117639
v 6.820858 9.073321 6.117639
v -3.162614 9.073321 -5.862530
v 6.820858 9.073321 -5.862530
vn 0.0000 1.0000 0.0000
usemtl None
s off
f 137//65 138//65 140//65 139//65
o Plane.003
v -3.663063 -0.204673 -5.718883
v 6.136937 -0.204673 -5.718883
v -3.663063 9.795327 -5.718883
v 6.136937 9.795327 -5.718883
vn 0.0000 0.0000 1.0000
usemtl None
s off
f 141//66 142//66 144//66 143//66
o Plane.002
v -3.412660 -0.249544 6.231932
v 6.187340 -0.249544 6.231932
v -3.412660 9.750456 6.231932
v 6.187340 9.750456 6.231932
vn 0.0000 0.0000 1.0000
usemtl None
s off
f 145//67 146//67 148//67 147//67
o Plane.001
v -3.643046 9.771150 6.261059
v -3.643047 -0.228850 6.261059
v -3.643046 9.771150 -5.738941
v -3.643047 -0.228850 -5.738941
vn 1.0000 -0.0000 0.0000
usemtl None
s off
f 149//68 150//68 152//68 151//68
o Plane
v -3.839818 -0.194170 6.277843
v 6.160182 -0.194170 6.277843
v -3.839818 -0.194170 -5.722157
v 6.160182 -0.194170 -5.722157
vn 0.0000 1.0000 0.0000
usemtl None
s off
f 153//69 154//69 156//69 155//69
o Plane.007
v -3.663063 -0.204673 -5.718883
v 6.136937 -0.204673 -5.718883
v -3.663063 9.795327 -5.718883
v 6.136937 9.795327 -5.718883
vn 0.0000 0.0000 1.0000
usemtl None
s off
f 157//70 158//70 160//70 159//70
